<?xml version="1.0" encoding="UTF-8"?>
<svg version="1.1" xmlns="http://www.w3.org/2000/svg" xmlns:xlink="http://www.w3.org/1999/xlink" x="0px" y="0px" viewBox="0 0 683.6 70.6" style="" xml:space="preserve">
    <g id="Ebene_1">  </g>
    <g id="Ebene_2">
        <path d="M70.1,16.5l-56.5,0l0-15.1C13.6,0.6,13,0,12.2,0H1.4C0.6,0,0,0.6,0,1.4v67.7c0,0.8,0.6,1.4,1.4,1.4l68.7,0   c7.4,0,13.5-6,13.5-13.5V29.9C83.6,22.5,77.5,16.5,70.1,16.5z M64.6,57.3l-51,0V29.8l51,0c3.1,0,5.7,2.9,5.7,6.1l0,15.7   C70.3,54.8,67.7,57.3,64.6,57.3z"/> 	<path d="M537,30v27.2c0,7.4,6,13.5,13.5,13.5l68.7,0c0.8,0,1.4-0.6,1.4-1.8V1c0-0.4-0.6-1-1.4-1h-10.8c-0.8,0-1.4,0.6-1.4,1.4   l0,15.1l-56.5,0C543,16.5,537,22.6,537,30z M550.3,51.6l0-16c0-3.1,2.5-5.8,5.7-5.8l51,0v27.5l-51,0   C552.8,57.3,550.3,54.8,550.3,51.6z"/> 	<path d="M195.6,35.5c0-3.1,2.5-5.7,5.7-5.7l34,0c0.8,0,1.4-0.6,1.4-1.4V18c0-0.8-0.6-1.4-1.4-1.4l-39.4,0c-7.4,0-13.5,6-13.5,13.5   l0,39.2c0,0.8,0.6,1.4,1.4,1.4h10.5c0.8,0,1.4-0.6,1.4-1.4L195.6,35.5z"/> 	<path d="M314.9,35.5c0-3.1,2.5-5.7,5.7-5.7l34,0c0.8,0,1.4-0.6,1.4-1.4V18c0-0.8-0.6-1.4-1.4-1.4l-39.4,0c-7.4,0-13.5,6-13.5,13.5   l0,39.2c0,0.8,0.6,1.4,1.4,1.4h10.5c0.8,0,1.4-0.6,1.4-1.4L314.9,35.5z"/> 	<path d="M293.6,57.4l-33.2,0c-3.1,0-5.7-2.5-5.7-5.7l0-21.9h38.6c0.8,0,1.4-0.6,1.4-1.4V18c0-0.8-0.6-1.4-1.4-1.4l-38.5,0l0-15.1   c0-0.8-0.6-1.4-1.4-1.4h-10.9c-0.8,0-1.4,0.6-1.4,1.1l0,55.7c0,7.8,6,13.8,13.5,13.8l38.8,0c0.8,0,1.4-0.6,1.4-1.4V58.7   C294.6,58.1,294.1,57.5,293.6,57.4z"/> 	<path d="M682.6,57.4l-33.2,0c-3.1,0-5.7-2.5-5.7-5.7l0-21.9h38.6c0.8,0,1.4-0.6,1.4-1.4V18c0-0.8-0.6-1.4-1.4-1.4l-38.5,0l0-15.1   c0-0.8-0.6-1.4-1.4-1.4h-10.9c-0.8,0-1.4,0.6-1.4,1.2l0,55.7c0,7.6,6,13.7,13.5,13.7l38.8,0c0.8,0,1.4-0.6,1.4-1.4V58.7   C683.6,58.1,683.1,57.5,682.6,57.4z"/> 	<path d="M436.9,30.3c0-7.7-6-13.7-13.5-13.7l-60.8,0c-0.8,0-1.4,0.6-1.4,1.4v10.5c0,0.8,0.6,1.4,1.4,1.4l55,0v0h0.4   c3.1,0,5.7,3.5,5.7,6.6V37c0,0-53.3,0-53.6,0c-9.4,0-17,7.4-17,16.8c0,9.4,7.6,16.9,17,16.9c0.2,0,65.5,0,65.5,0   c0.8,0,1.4-0.6,1.4-1.1L436.9,30.3z M370,57.3C370,57.3,370,57.3,370,57.3c-2.7,0-4.9-1.7-4.9-4.3c0-2.6,2.2-4.2,4.8-4.2l53.7,0   v8.5H370z"/> 	<path d="M528.3,30c0-7.4-6-13.5-13.5-13.5l-68,0c-0.8,0-1.4,0.6-1.4,1.4v51.3c0,0.8,0.6,1.4,1.4,1.4h11c0.8,0,1.4-0.6,1.4-1.4   l0-39.4l49.6,0c3.1,0,5.7,2.5,5.7,5.7l0,33.7c0,0.8,0.6,1.4,1.4,1.4h11c0.8,0,1.4-0.6,1.4-1.4L528.3,30z"/> 	<path d="M173.6,58.8c0-0.7-0.5-1.2-1.1-1.4l-61.1,0c-3.1,0-5.7-2.4-5.7-5.6v-2.4h67.8l0-19.4c0-7.4-6-13.5-13.5-13.5h-54.3   c-7.4,0-13.5,6-13.5,13.5v27.2c0,7.4,6,13.5,13.5,13.5l66.5,0c0.8,0,1.4-0.6,1.4-1.4V58.8z M105.8,36.8c0-3.1,2.5-7,5.7-7h0.1v0   l42.5,0h0.5c3.1,0,5.7,3.9,5.7,7v0.9h-54.5V36.8z"/> </g> </svg>